<svg width="125" height="40" viewBox="0 0 125 40" fill="none" xmlns="http://www.w3.org/2000/svg">
<path d="M0 19.95V40H6.65V26.7H26.65V19.95H6.65H0ZM0 -5.96046e-07L6.65 6.7H26.65V-5.96046e-07H0ZM38.4859 33.3L31.8359 40H58.4859V33.3H38.4859ZM31.8359 -5.96046e-07V1.1V30.95L38.4859 24.25V1.1V-5.96046e-07H31.8359ZM83.9742 23.35C83.9742 26.05 82.9242 28.4 80.9742 30.35C79.0242 32.3 76.6742 33.3 73.9242 33.3C71.1742 33.3 68.7742 32.35 66.8242 30.35C64.9242 28.45 63.9742 26.1 63.9742 23.35V-5.96046e-07H57.3242V23.35C57.3242 27.9 58.9242 31.9 62.1742 35.15C65.4242 38.4 69.3742 40 73.9242 40C78.4742 40 82.4742 38.4 85.7242 35.15C89.0242 31.9 90.6242 27.95 90.6242 23.35H83.9742ZM93.0227 -5.96046e-07H84.4727L100.173 20L104.373 14.6L93.0227 -5.96046e-07ZM84.4727 40H93.0227L104.373 25.4L100.173 20L84.4727 40ZM124.223 -5.96046e-07H115.773L104.373 14.6L108.623 20L124.223 -5.96046e-07ZM104.373 25.4L115.773 40H124.223L108.623 20L104.373 25.4Z" fill="white"/>
</svg>
